<svg width="48" height="48" viewBox="0 0 48 48" fill="none" xmlns="http://www.w3.org/2000/svg">
    <rect width="48" height="48" rx="6.4" fill="#FF6600"/>
    <path opacity="0.2" d="M13.3479 17.9785C13.2633 18.1225 13.2187 18.2864 13.2188 18.4534V29.5469C13.2187 29.7129 13.2628 29.8759 13.3465 30.0193C13.4302 30.1627 13.5504 30.2813 13.6949 30.363L23.5387 35.9269C23.6794 36.0064 23.8383 36.0482 24 36.0482V36.0482L24.1244 24.0001L13.348 17.9786L13.3479 17.9785Z" fill="white"/>
    <path fill-rule="evenodd" clip-rule="evenodd" d="M24.1341 23.0626C24.6518 23.0679 25.0672 23.4919 25.0619 24.0097L24.9375 36.0578C24.9321 36.5755 24.5081 36.9909 23.9903 36.9855C23.4726 36.9802 23.0572 36.5562 23.0626 36.0384L23.187 23.9903C23.1923 23.4726 23.6164 23.0572 24.1341 23.0626Z" fill="white"/>
    <path fill-rule="evenodd" clip-rule="evenodd" d="M23.0774 11.2573C23.3589 11.0983 23.6767 11.0146 24 11.0146C24.3233 11.0146 24.6411 11.0983 24.9226 11.2573L34.7664 16.8212C35.0554 16.9846 35.2959 17.2218 35.4632 17.5086C35.6306 17.7954 35.7188 18.1215 35.7188 18.4535V29.547C35.7188 29.8791 35.6306 30.2051 35.4632 30.4919C35.2959 30.7787 35.0554 31.0159 34.7664 31.1793L24.9226 36.7432C24.6411 36.9023 24.3233 36.9859 24 36.9859C23.6767 36.9859 23.3589 36.9023 23.0774 36.7432L13.2336 31.1793C12.9446 31.0159 12.7041 30.7787 12.5368 30.4919C12.3694 30.2051 12.2812 29.8791 12.2813 29.547V18.4535C12.2813 18.1215 12.3694 17.7954 12.5368 17.5086C12.7041 17.2218 12.9446 16.9846 13.2336 16.8212L13.6949 17.6374L13.2336 16.8212L23.0774 11.2573ZM24 12.8896L14.1562 18.4535V29.547L24 35.1109L33.8438 29.547V18.4535L24 12.8896L24.4613 12.0735L24 12.8896Z" fill="white"/>
    <path fill-rule="evenodd" clip-rule="evenodd" d="M12.5294 17.5214C12.782 17.0694 13.3531 16.9077 13.8051 17.1603L24.1189 22.9233L34.1873 17.1661C34.6367 16.9091 35.2095 17.0651 35.4665 17.5146C35.7235 17.9641 35.5675 18.5368 35.118 18.7938L24.5896 24.8141C24.3042 24.9773 23.954 24.9791 23.667 24.8187L12.8905 18.7971C12.4385 18.5445 12.2769 17.9734 12.5294 17.5214Z" fill="white"/>
</svg>
